<mxfile host="app.diagrams.net" modified="2023-04-01T11:18:30.675Z" agent="Mozilla/5.0 (Windows NT 10.0; Win64; x64) AppleWebKit/537.36 (KHTML, like Gecko) Chrome/111.0.0.0 Safari/537.36" etag="EcV6jFWD56CBpan0h7Wt" version="21.1.2" type="github">
  <diagram id="Za0V6DKtKcFsV4YseQ1D" name="Page-1">
    <mxGraphModel dx="501" dy="445" grid="1" gridSize="10" guides="1" tooltips="1" connect="1" arrows="1" fold="1" page="1" pageScale="1" pageWidth="827" pageHeight="1169" math="0" shadow="0">
      <root>
        <mxCell id="0" />
        <mxCell id="1" parent="0" />
      </root>
    </mxGraphModel>
  </diagram>
</mxfile>
